<svg width="16" height="16" viewBox="0 0 16 16" fill="none" xmlns="http://www.w3.org/2000/svg">
<path d="M3.63206 15.4996V5.37882H0.202169V15.4996H3.63242H3.63206ZM1.91783 3.99722C3.11365 3.99722 3.85813 3.22006 3.85813 2.24883C3.83575 1.25547 3.11365 0.5 1.94057 0.5C0.766684 0.5 0 1.25547 0 2.24874C0 3.21998 0.744211 3.99714 1.89536 3.99714H1.91756L1.91783 3.99722ZM5.53055 15.4996H8.96017V9.84833C8.96017 9.54624 8.98255 9.24337 9.07316 9.02761C9.32099 8.423 9.88533 7.79715 10.8331 7.79715C12.0738 7.79715 12.5705 8.72517 12.5705 10.0859V15.4996H16V9.69667C16 6.58811 14.3082 5.14154 12.0516 5.14154C10.2016 5.14154 9.38904 6.15571 8.9376 6.84646H8.96044V5.37917H5.53073C5.57549 6.32862 5.53046 15.5 5.53046 15.5L5.53055 15.4996Z" fill="#E8E8E8"/>
</svg>
