<svg width="16" height="14" viewBox="0 0 16 14" fill="none" xmlns="http://www.w3.org/2000/svg">
<path d="M3.9338 8.07752L0.320378 6.91788C0.320378 6.91788 -0.111466 6.7453 0.0275876 6.35398C0.0562126 6.27328 0.113956 6.20461 0.286694 6.08661C1.08733 5.53693 15.1058 0.573984 15.1058 0.573984C15.1058 0.573984 15.5017 0.442609 15.7351 0.52999C15.7928 0.547598 15.8448 0.58 15.8857 0.623881C15.9265 0.667762 15.9548 0.721547 15.9677 0.779735C15.9929 0.882509 16.0034 0.988247 15.999 1.09389C15.9979 1.18528 15.9867 1.26999 15.9782 1.40282C15.8928 2.75971 13.3377 12.8866 13.3377 12.8866C13.3377 12.8866 13.1849 13.4792 12.6372 13.4995C12.5026 13.5038 12.3685 13.4813 12.2429 13.4335C12.1173 13.3856 12.0028 13.3133 11.9061 13.2209C10.8313 12.3103 7.11649 9.85126 6.29561 9.31045C6.2771 9.29802 6.2615 9.28183 6.24988 9.26296C6.23826 9.24409 6.23088 9.22299 6.22824 9.20107C6.21677 9.14407 6.2797 9.07346 6.2797 9.07346C6.2797 9.07346 12.7482 3.41014 12.9203 2.81561C12.9337 2.76955 12.8833 2.74683 12.8157 2.767C12.3861 2.92268 4.93839 7.5553 4.11641 8.06658C4.05724 8.08422 3.9947 8.08796 3.9338 8.07752Z" fill="#E8E8E8"/>
</svg>
