<svg width="656" height="144" viewBox="0 0 656 144" fill="none" xmlns="http://www.w3.org/2000/svg">
<path d="M345.375 57.625C351.18 62.8774 353.488 69.3029 354 77C353.504 85.7913 352.148 92.257 345.438 98.3125C342.018 100.68 339.26 101.194 335.188 101.312C333.94 101.369 333.94 101.369 332.668 101.426C330 101 330 101 324 97C323.67 103.6 323.34 110.2 323 117C319.04 117 315.08 117 311 117C311 96.87 311 76.74 311 56C314.63 56 318.26 56 322 56C322.33 57.65 322.66 59.3 323 61C323.928 60.1956 324.856 59.3912 325.812 58.5625C331.618 53.5313 338.751 54.4354 345.375 57.625ZM323.91 69.1016C321.403 74.3301 321.57 79.3794 323.125 84.875C324.238 87.7422 324.968 88.9698 327.25 91.125C330.977 92.3108 333.25 92.0908 337 91C341.85 86.0226 342.284 82.4882 342.223 75.7695C341.94 72.2495 341.006 69.8975 339 67C335.82 64.8802 333.805 64.4474 330.004 64.5664C327.145 65.185 325.551 66.7318 323.91 69.1016Z" fill="#E8E8E8"/>
<path d="M198.937 40.5625C199.994 40.576 199.994 40.576 201.072 40.5898C209.09 40.8573 213.358 43.0579 218.875 48.6875C222.366 52.9097 223.245 56.6286 224 62C220.04 62 216.08 62 212 62C211.629 60.9069 211.257 59.8137 210.875 58.6875C209.608 55.7762 209.008 55.006 206.312 53.0625C200.821 51.3009 196.34 51.0268 191.187 53.625C187.047 56.7099 185.722 59.5058 184.312 64.375C183.456 71.5658 183.936 77.3899 187 84C189.284 86.8738 191.505 88.8351 195 90C200.518 90.445 204.354 90.3493 209 87C210.357 84.696 211.132 82.5563 212 80C215.96 80 219.92 80 224 80C222.943 87.5132 220.828 92.0348 215 97C208.103 101.858 200.16 102.048 192 101C183.831 98.5916 178.035 93.4189 173.906 86.0469C170.43 77.6131 170.324 64.5657 173.762 56.0937C179.681 46.0856 187.058 40.3804 198.937 40.5625Z" fill="#E8E8E8"/>
<path d="M432 41C435.96 41 439.92 41 444 41C447.714 49.8961 450.735 58.9758 453.75 68.125C454.261 69.6694 454.773 71.2136 455.285 72.7578C456.527 76.5041 457.764 80.2517 459 84C461.378 80.433 462.481 76.7683 463.75 72.7188C464.009 71.9089 464.268 71.099 464.534 70.2645C465.361 67.6778 466.181 65.0891 467 62.5C468.078 59.092 469.162 55.6861 470.25 52.2812C470.619 51.1046 470.619 51.1046 470.995 49.9042C472.055 46.5892 473.057 43.9143 475 41C477.82 40.707 477.82 40.707 481.125 40.8125C482.769 40.8531 482.769 40.8531 484.445 40.8945C485.71 40.9467 485.71 40.9467 487 41C485.023 48.6702 482.663 56.1208 479.988 63.5742C479.615 64.6241 479.242 65.6739 478.858 66.7556C477.68 70.0676 476.496 73.3776 475.312 76.6875C474.507 78.9497 473.701 81.2121 472.896 83.4746C470.935 88.9846 468.969 94.4928 467 100C462.05 100 457.1 100 452 100C449.536 93.0469 447.076 86.0928 444.62 79.1369C443.479 75.9068 442.338 72.6771 441.193 69.4485C439.876 65.7339 438.565 62.0174 437.254 58.3008C436.843 57.1454 436.433 55.99 436.01 54.7996C435.63 53.7189 435.25 52.6382 434.858 51.5247C434.522 50.5765 434.187 49.6283 433.842 48.6513C433 46 433 46 432 41Z" fill="#E8E8E8"/>
<path d="M262 56C265.96 56 269.92 56 274 56C276.97 65.57 279.94 75.14 283 85C285.036 81.9461 285.888 79.515 286.945 76.0195C287.3 74.8562 287.654 73.6928 288.02 72.4941C288.384 71.2792 288.749 70.0643 289.125 68.8125C289.498 67.586 289.87 66.3594 290.254 65.0957C291.174 62.0651 292.087 59.0327 293 56C296.96 56 300.92 56 305 56C304.314 59.4304 303.631 62.3251 302.497 65.5715C302.193 66.4463 301.889 67.321 301.576 68.2222C301.082 69.6224 301.082 69.6224 300.578 71.0508C300.236 72.0236 299.894 72.9963 299.542 73.9986C298.818 76.0543 298.091 78.1094 297.363 80.1638C296.259 83.2876 295.168 86.4161 294.078 89.5449C293.371 91.5472 292.662 93.5491 291.953 95.5508C291.632 96.4781 291.311 97.4055 290.98 98.3609C286.034 112.168 286.034 112.168 279.688 116C274.536 117.397 270.158 117.719 265 116C265.66 113.03 266.32 110.06 267 107C271.455 106.505 271.455 106.505 276 106C276.366 99.4801 275.191 94.6276 272.938 88.5391C272.471 87.2314 272.471 87.2314 271.996 85.8973C271.009 83.1355 270.005 80.3802 269 77.625C267.998 74.8473 267 72.0684 266.004 69.2884C265.385 67.564 264.762 65.8412 264.135 64.12C262 58.2192 262 58.2192 262 56Z" fill="#E8E8E8"/>
<path d="M641.813 57.625C646.799 61.3403 649.491 64.9625 651 71C651 74.3 651 77.6 651 81C641.1 81 631.2 81 621 81C623.026 88.7728 623.026 88.7728 627 91C630.041 91.4817 632.957 91.4783 636 91C637.373 89.7077 638.71 88.3756 640 87C644.261 86.5435 647.35 86.6643 651 89C648.651 94.4394 646.11 97.5119 640.73 100.086C634.416 102.2 626.602 102.165 620.5 99.375C615.229 96.2277 611.886 91.8549 610 86C609.228 77.9843 608.695 69.5693 614 63C621.375 54.8762 631.815 52.5716 641.813 57.625ZM624 67C621.618 69.6289 621 70.3883 621 74C627.27 74 633.54 74 640 74C639.476 68.5106 639.476 68.5106 637.875 66.1875C632.923 63.0514 628.45 63.4153 624 67Z" fill="#E8E8E8"/>
<path d="M518.813 57.625C523.799 61.3403 526.491 64.9625 528 71C528 74.3 528 77.6 528 81C518.1 81 508.2 81 498 81C500.026 88.7728 500.026 88.7728 504 91C507.041 91.4817 509.957 91.4783 513 91C514.373 89.7077 515.71 88.3756 517 87C521.261 86.5435 524.35 86.6643 528 89C525.651 94.4394 523.11 97.5119 517.73 100.086C511.416 102.2 503.602 102.165 497.5 99.375C492.229 96.2277 488.886 91.8549 487 86C486.228 77.9843 485.695 69.5693 491 63C498.375 54.8762 508.815 52.5716 518.813 57.625ZM501 67C498.618 69.6289 498 70.3883 498 74C504.27 74 510.54 74 517 74C516.476 68.5106 516.476 68.5106 514.875 66.1875C509.923 63.0514 505.45 63.4153 501 67Z" fill="#E8E8E8"/>
<path d="M424 59C428.981 63.7295 431.585 68.1505 432.336 75.1133C432.431 82.8964 431.961 89.583 426.574 95.5898C420.657 100.865 414.889 101.504 407.234 101.383C401.198 100.668 397.705 97.7943 393.625 93.5C389.268 86.7971 388.362 79.7063 389.625 71.875C390.919 66.3567 393.125 62.158 397.707 58.7187C405.759 53.8067 416.063 53.5886 424 59ZM405 66C400.776 70.6769 400.721 75.2208 400.777 81.2656C401.063 84.7681 402.004 87.1174 404 90C407.737 92.4916 409.573 92.4579 414 92C417.287 90.1008 418.679 88.6736 420.313 85.25C421.715 78.6224 421.64 73.593 418.336 67.6406C414.758 63.2469 409.535 63.2288 405 66Z" fill="#E8E8E8"/>
<path d="M597 57.75C600.01 60.0075 601.506 61.5733 603 65C603 65.99 603 66.98 603 68C599.816 69.5919 596.458 69.5336 593 69C591.646 67.6873 590.312 66.3543 589 65C584.598 64.5366 582.721 64.5196 579 67C579.22 68.9769 579.22 68.9769 580 71C582.766 72.0041 585.34 72.7676 588.188 73.4375C594.404 74.9055 598.389 76.4746 603 81C604.612 84.2235 604.45 87.5048 604 91C601.858 95.6404 599.135 98.2565 594.539 100.305C587.766 102.16 579.86 102.265 573.375 99.375C569.865 97.2583 567.871 94.6646 566 91C566 90.01 566 89.02 566 88C569.431 86.2845 573.248 86.4709 577 87C578.625 88.9375 578.625 88.9375 580 91C583.434 91.8741 585.928 92.282 589.375 91.375C591.595 89.4963 591.538 87.7991 592 85C590.842 84.7577 589.685 84.5153 588.492 84.2656C586.953 83.9277 585.414 83.5892 583.875 83.25C582.734 83.0141 582.734 83.0141 581.57 82.7734C576.018 81.5289 571.272 79.8917 567.625 75.25C566.2 70.1215 566.319 66.3872 568.625 61.6875C575.515 53.8904 587.967 53.0028 597 57.75Z" fill="#E8E8E8"/>
<path d="M364 45C367.63 45 371.26 45 375 45C375 48.63 375 52.26 375 56C377.97 56 380.94 56 384 56C384 58.97 384 61.94 384 65C381.03 65 378.06 65 375 65C375.139 68.6045 375.287 72.2085 375.438 75.8125C375.477 76.8367 375.516 77.8608 375.557 78.916C375.599 79.8989 375.64 80.8818 375.684 81.8945C375.72 82.8005 375.757 83.7065 375.795 84.6399C375.921 87.1505 375.921 87.1505 377 90C378.98 90.33 380.96 90.66 383 91C383.66 93.97 384.32 96.94 385 100C381.316 101.842 377.03 101.362 373 101C369.765 99.5546 367.221 97.776 365 95C363.877 91.6291 363.885 88.4553 363.902 84.9219C363.906 83.7617 363.909 82.6016 363.912 81.4062C363.92 80.1997 363.929 78.9931 363.938 77.75C363.942 76.528 363.947 75.3059 363.951 74.0469C363.963 71.0312 363.979 68.0156 364 65C362.02 65 360.04 65 358 65C358 62.03 358 59.06 358 56C359.98 56 361.96 56 364 56C364 52.37 364 48.74 364 45Z" fill="#E8E8E8"/>
<path d="M257 55C258 56 258 56 258.098 58.2852C258.086 59.2017 258.074 60.1182 258.062 61.0625C258.053 61.9816 258.044 62.9007 258.035 63.8477C258.024 64.5579 258.012 65.2682 258 66C256.422 65.9072 256.422 65.9072 254.812 65.8125C250.761 66.0118 249.091 66.4388 246 69C244.119 72.7715 243.71 75.9899 243.586 80.1758C243.528 81.9112 243.528 81.9112 243.469 83.6816C243.422 85.4789 243.422 85.4789 243.375 87.3125C243.317 89.1388 243.317 89.1388 243.258 91.0019C243.164 94.0011 243.078 97.0003 243 100C239.37 100 235.74 100 232 100C232 85.48 232 70.96 232 56C235.63 56 239.26 56 243 56C243.33 57.32 243.66 58.64 244 60C244.598 59.3606 245.196 58.7212 245.812 58.0625C249.322 54.7538 252.351 54.7979 257 55Z" fill="#E8E8E8"/>
<path d="M561 55C562 56 562 56 562.098 58.2852C562.086 59.2017 562.074 60.1182 562.062 61.0625C562.053 61.9816 562.044 62.9007 562.035 63.8477C562.024 64.5579 562.012 65.2682 562 66C560.422 65.9381 560.422 65.9381 558.812 65.875C555.203 65.9934 553.106 66.2251 550 68C547.738 71.4021 547.696 74.4979 547.586 78.5156C547.528 80.3912 547.528 80.3912 547.469 82.3047C547.422 84.2576 547.422 84.2576 547.375 86.25C547.336 87.5674 547.298 88.8849 547.258 90.2422C547.164 93.4947 547.078 96.7471 547 100C543.37 100 539.74 100 536 100C536 85.48 536 70.96 536 56C539.63 56 543.26 56 547 56C547.33 56.99 547.66 57.98 548 59C548.598 58.5256 549.196 58.0513 549.812 57.5625C553.511 54.9204 556.565 54.8072 561 55Z" fill="#E8E8E8"/>
<path d="M65.23 132.73L64.95 132.6L64.14 132.05L63.69 131.74L62.57 130.87L61.97 130.4L60.6 129.25L59.88 128.64L58.29 127.25L56.67 125.8L52.99 122.38L47.24 116.78L33.26 102.78L51.74 84.28L54.28 81.73L59.04 77.1L60.18 75.99L62.31 73.95L63.35 72.97L65.24 71.21L66.14 70.38L67.72 68.95L68.47 68.28L69.69 67.24L70.25 66.77L71.06 66.16L71.74 65.78H71.84L72.42 66.16L72.77 66.41L73.79 67.24L74.35 67.71L75.76 68.95L76.5 69.62L78.24 71.21L79.15 72.05L81.17 73.95L82.2 74.94L84.44 77.1L91.74 84.28L110.22 102.78L96.24 116.78L95.12 117.9L93.03 119.97L92.01 120.97L90.12 122.8L89.19 123.69L87.47 125.29L86.62 126.06L85.06 127.45L83.52 128.79L80.85 130.85L79.57 131.78L77.29 133.09L76.18 133.66L74.15 134.29L73.16 134.53L71.24 134.56L70.28 134.5L68.33 134L67.34 133.69M18.63 88.05L17.51 86.88L15.59 84.74L14.69 83.71L13.18 81.81L12.47 80.88L11.34 79.16L10.83 78.32L10.06 76.73L9.72 75.94L9.3 74.43L9.13 73.67L9.02 72.18L9 71.43L9.18 69.91L9.76 67.53L10.02 66.7L11.09 64.77L11.42 64.25L12.27 63.07L12.73 62.46L13.88 61.06L14.49 60.33L15.98 58.65L16.77 57.77L18.64 55.77L19.63 54.72L21.92 52.34L25.9 48.28L40.7 33.28L52.22 44.76L53.8 46.34L56.69 49.3L58.07 50.73L60.36 53.17L60.88 53.74L61.77 54.73L62.18 55.2L62.83 55.97L63.12 56.32L63.5 56.83L63.74 57.27V57.32L63.4 57.75L63.17 58.02L62.42 58.87L61.99 59.33L60.88 60.53L60.29 61.17L58.88 62.67L58.13 63.45L56.47 65.19L55.61 66.09L53.75 68.02L51.85 69.99L47.68 74.27L45.56 76.44L41.29 80.78L39.18 82.92L35.23 86.88L34.29 87.83L32.52 89.58L31.67 90.42L30.14 91.93L29.4 92.64L28.15 93.85L26.64 95.27L26.6 95.3L26.37 95.22L26.23 95.15L25.82 94.87L25.37 94.54L24.04 93.37L23.31 92.72L21.55 91.02L20.64 90.12M111.24 89.78L105.29 83.76L116.75 72.27L118.32 70.69L121.29 67.81L122.72 66.44L125.18 64.16L125.75 63.64L126.75 62.75L127.23 62.34L128.01 61.69L128.37 61.4L128.9 61.01L129.36 60.78H129.54L129.99 61.14L130.24 61.36L130.79 62.1L131.36 62.91L132.57 65.21L133.16 66.41L134.1 68.86L134.29 69.44L134.57 70.49L134.74 71.78V72.29L134.55 73.41L134.42 74L133.99 75.26L133.49 76.56L131.83 79.48L130.89 80.97L128.43 84.16L123.95 89.07L117.18 95.79L111.24 89.78ZM88.47 67.01L87.27 65.8L85.08 63.53L84.04 62.43L82.3 60.52L81.51 59.64L80.43 58.32L80.21 58.04L79.92 57.62L79.74 57.24V57.18L79.97 56.81L80.13 56.59L80.65 55.95L80.94 55.6L81.71 54.72L82.13 54.26L83.12 53.17L84.16 52.04L86.78 49.31L91.24 44.78L102.75 33.3L112.48 43.04L122.22 52.77L110.74 64.28L109.17 65.86L106.21 68.74L104.78 70.12L102.34 72.4L101.77 72.92L100.78 73.81L100.31 74.22L99.54 74.87L99.19 75.16L98.68 75.55L98.24 75.78H98.16L97.85 75.6L97.66 75.48L97.14 75.09L96.58 74.64L94.94 73.2L94.05 72.41L91.94 70.42L90.84 69.37M59.43 37.97L47.64 26.15L55.44 18.7L57.13 17.08L60.18 14.45L61.66 13.24L64.36 11.42L65.68 10.61L68.16 9.6L69.38 9.2L71.77 9H72.96L75.38 9.61L76.6 10.02L79.17 11.45L80.48 12.26L83.33 14.49L88.05 18.76L95.86 26.28L84.3 37.78L82.71 39.36L79.75 42.26L78.33 43.65L75.91 45.98L75.36 46.51L74.39 47.42L73.93 47.85L73.19 48.53L72.85 48.83L72.37 49.25L71.98 49.53L71.93 49.55L71.59 49.34L71.38 49.2L70.75 48.7L70.41 48.41L69.53 47.65L69.07 47.24L67.98 46.24L66.84 45.19L64.06 42.54L62.62 41.14L59.43 37.97Z" fill="#FDD82A"/>
</svg>
